# xmcd
#
# Track frame offsets:
#	150
#	18595
#	34675
#	47067
#	61314
#	76790
#	92556
#	108692
#	124664
#	145301
#	160048
#	171963
#	187141
#	202771
#	219374
#	229727
#	242113
#	261564
#	272060
#	272715
#	275910
#	276690
#	277337
#	292796
#	312114
#	328371
#	342812
#
# Disc length: 4762 seconds
#
# Revision: 0
# Processed by: cddbd v1.5.2PL0 Copyright (c) Steve Scherf et al.
# Submitted via: audiograbber 1.83.01
#
DISCID=aa12981b
DTITLE=Country Hotdisc - Country Hotdisc 116
DYEAR=2008
DGENRE=Country
TTITLE0=If I Give My Love To You  - Gary Curtis
TTITLE1=I Don´t Wanna Be That Strong - Michelle Wright
TTITLE2=The Emotion Of Love - Dave Aspen
TTITLE3=Stubborn  - Tabatha and Southern Fry´d
TTITLE4=Fantacy Woman  - Graham G Toole
TTITLE5=Might As A Well  - Mikayla Lee
TTITLE6=Out Of My Mind (2008 Remix)  - Chilli Gold
TTITLE7=I Hope You Dance  - Clive John
TTITLE8=Jesus Heard Every Word (i Never Said)  - Gina Michaels
TTITLE9=I Can Go Back Anytime  - Carrie Hassler and Hard Rain
TTITLE10=The Song Is Just For You  - Houston Wells
TTITLE11=Will I Ever Get Over You  - Julie Richardson
TTITLE12=It Takes An Irish Man To Sing A Irish Song  - Curtis Magee
TTITLE13=The Oldest Rock and Roller - Stu Stevens
TTITLE14=The Lamp  - Gerry Black
TTITLE15=Cowboy, You Can´t Dance  - Neil Andrews
TTITLE16=Wild Horses  - Gina Michaels
TTITLE17=Frank Ifield Interviews Graham G Tool  - Frank Ifield
TTITLE18=Radio Id  - Graham G Toole
TTITLE19=Sound Bite  - Michells Wright
TTITLE20=Radio Id  - Michells Wright
TTITLE21=Radio Id  - Michells Wright
TTITLE22=I Need More Of You  - The Bellamy Brothers
TTITLE23=Addicted  - Dan Seals
TTITLE24=Sunshine On Leith  - The Proclaimers
TTITLE25=There´s No Getting Over Me - Ronnie Milsap
TTITLE26=Love You By Heart  - Sylvia
EXTD=
EXTT0=
EXTT1=
EXTT2=
EXTT3=
EXTT4=
EXTT5=
EXTT6=
EXTT7=
EXTT8=
EXTT9=
EXTT10=
EXTT11=
EXTT12=
EXTT13=
EXTT14=
EXTT15=
EXTT16=
EXTT17=
EXTT18=
EXTT19=
EXTT20=
EXTT21=
EXTT22=
EXTT23=
EXTT24=
EXTT25=
EXTT26=
PLAYORDER=
